<?xml version="1.0" encoding="utf-8"?>
<!-- Generator: Adobe Illustrator 25.1.0, SVG Export Plug-In . SVG Version: 6.00 Build 0)  -->
<svg version="1.1" id="Layer_1" xmlns="http://www.w3.org/2000/svg" xmlns:xlink="http://www.w3.org/1999/xlink" x="0px" y="0px"
	 viewBox="0 0 780 440" enable-background="new 0 0 780 440" xml:space="preserve">
<g id="Background">
	<rect y="0" fill="#3896E3" width="780" height="440"/>
</g>
<g id="Artwork">
	<path fill="#FFFFFF" stroke="#162020" stroke-width="1.5" stroke-miterlimit="10" d="M149.2,222.6h107.6c2.5,0,4.4,2,4.4,4.4v63
		c0,2.5-2,4.4-4.4,4.4H149.2c-2.5,0-4.4-2-4.4-4.4v-63C144.8,224.5,146.7,222.6,149.2,222.6z"/>
	<path fill="#C7E4F9" stroke="#162020" stroke-width="1.5" stroke-miterlimit="10" d="M149.2,150.6h107.6c2.5,0,4.4,2,4.4,4.4v58.1
		c0,2.5-2,4.4-4.4,4.4H149.2c-2.5,0-4.4-2-4.4-4.4v-58.1C144.8,152.6,146.7,150.6,149.2,150.6z"/>
	<path fill="#C7E4F9" stroke="#162020" stroke-width="1.5" stroke-miterlimit="10" d="M273.9,150.6h107.6c2.5,0,4.4,2,4.4,4.4v58.1
		c0,2.5-2,4.4-4.4,4.4H273.9c-2.5,0-4.4-2-4.4-4.4v-58.1C269.4,152.6,271.4,150.6,273.9,150.6z"/>
	<path fill="#C7E4F9" stroke="#162020" stroke-width="1.5" stroke-miterlimit="10" d="M398.5,150.6h107.6c2.5,0,4.4,2,4.4,4.4v58.1
		c0,2.5-2,4.4-4.4,4.4H398.5c-2.5,0-4.4-2-4.4-4.4v-58.1C394.1,152.6,396.1,150.6,398.5,150.6z"/>
	<path fill="#0C5689" stroke="#162020" stroke-width="1.5" stroke-miterlimit="10" d="M245.5,198.7c0-22.3-18.9-35.7-42.7-35.7
		c-15.6,0-32.2,5.7-43.1,18.3l13.6,15.8c7.6-7.9,17.3-12.9,29.8-12.9c9.4,0,18.3,4.9,18.3,14.6c0,6-2.6,11.6-9.3,18.9h28.1
		C243.5,211.9,245.4,205.3,245.5,198.7z"/>
	<path fill="#0C5689" stroke="#162020" stroke-width="1.5" stroke-miterlimit="10" d="M240.1,222.6H212
		c-8.6,9.3-24.1,21.2-49.8,40.1v18.8h84.2v-21h-46.6C219.5,246.6,233.1,234.6,240.1,222.6z"/>
	<path fill="#FFFFFF" stroke="#162020" stroke-width="1.5" stroke-miterlimit="10" d="M273.9,222.6h107.6c2.5,0,4.4,2,4.4,4.4v63
		c0,2.5-2,4.4-4.4,4.4H273.9c-2.5,0-4.4-2-4.4-4.4v-63C269.4,224.5,271.4,222.6,273.9,222.6z"/>
	<path fill="#0C5689" stroke="#162020" stroke-width="1.5" stroke-miterlimit="10" d="M327.6,283.5c31.9,0,46.3-29,46.3-57.8
		c0-1,0-2-0.1-3.1h-24.3c0,1,0,2,0,3.1c0,20.6-6,36.7-22,36.7c-16.1,0-22.1-16.1-22.1-36.7c0-1,0-2.1,0.1-3.1h-24.1
		c0,1-0.1,2-0.1,3.1C281.4,254.5,295.6,283.5,327.6,283.5z"/>
	<path fill="#0C5689" stroke="#162020" stroke-width="1.5" stroke-miterlimit="10" d="M327.6,184.1c15.1,0,21.3,14.4,21.9,33.5h24.3
		c-1-27.8-15.5-54.6-46.2-54.6c-30.9,0-45.2,26.8-46.2,54.6h24.1C306.2,198.4,312.4,184.1,327.6,184.1z"/>
	<path fill="#FFFFFF" stroke="#162020" stroke-width="1.5" stroke-miterlimit="10" d="M398.5,222.6h107.6c2.5,0,4.4,2,4.4,4.4v63
		c0,2.5-2,4.4-4.4,4.4H398.5c-2.5,0-4.4-2-4.4-4.4v-63C394.1,224.5,396.1,222.6,398.5,222.6z"/>
	<path fill="#0C5689" stroke="#162020" stroke-width="1.5" stroke-miterlimit="10" d="M411.5,262.7v18.8h84.1v-21h-46.6
		c19.8-13.9,33.4-25.9,40.4-37.9h-28.1C452.7,231.8,437.2,243.8,411.5,262.7z"/>
	<path fill="#0C5689" stroke="#162020" stroke-width="1.5" stroke-miterlimit="10" d="M494.8,198.7c0-22.3-18.9-35.7-42.7-35.7
		c-15.6,0-32.2,5.7-43.1,18.3l13.6,15.8c7.5-7.9,17.3-12.9,29.8-12.9c9.4,0,18.3,4.9,18.3,14.6c0,6-2.6,11.6-9.4,18.9h28.1
		C492.9,211.9,494.7,205.3,494.8,198.7z"/>
	<path fill="#C7E4F9" stroke="#162020" stroke-width="1.5" stroke-miterlimit="10" d="M523.2,150.6h107.6c2.5,0,4.4,2,4.4,4.4v58.1
		c0,2.5-2,4.4-4.4,4.4H523.2c-2.5,0-4.4-2-4.4-4.4v-58.1C518.8,152.6,520.7,150.6,523.2,150.6z"/>
	<path fill="#FFFFFF" stroke="#162020" stroke-width="1.5" stroke-miterlimit="10" d="M523.2,222.6h107.6c2.5,0,4.4,2,4.4,4.4v63
		c0,2.5-2,4.4-4.4,4.4H523.2c-2.5,0-4.4-2-4.4-4.4v-63C518.8,224.5,520.7,222.6,523.2,222.6z"/>
	<polygon fill="#0C5689" stroke="#162020" stroke-width="1.5" stroke-miterlimit="10" points="579.6,164.6 544.4,200 558,214.3 
		576.6,195.3 576.6,217.6 600.4,217.6 600.4,164.6 	"/>
	
		<rect x="576.6" y="222.6" fill="#0C5689" stroke="#162020" stroke-width="1.5" stroke-miterlimit="10" width="23.8" height="58.9"/>
	<path fill="#FFFFFF" stroke="#162020" stroke-width="1.5" stroke-miterlimit="10" d="M523.2,222.6h107.6c2.5,0,4.4,2,4.4,4.4v63
		c0,2.5-2,4.4-4.4,4.4H523.2c-2.5,0-4.4-2-4.4-4.4v-63C518.8,224.5,520.7,222.6,523.2,222.6z"/>
	<path fill="#FFFFFF" stroke="#162020" stroke-width="1.5" stroke-miterlimit="10" d="M635.2,227l2.2,54.2c0,2.5-2,4.4-4.4,4.5
		c0,0,0,0,0,0H521.3c-2.5,0-4.4-2-4.4-4.4c0,0,0,0,0,0l1.9-54.2c0-2.5,2-4.4,4.4-4.4c0,0,0,0,0,0h107.6
		C633.2,222.6,635.2,224.5,635.2,227C635.2,227,635.2,227,635.2,227z"/>
	
		<rect x="576.6" y="222.6" fill="#0C5689" stroke="#162020" stroke-width="1.5" stroke-miterlimit="10" width="23.8" height="49.3"/>
</g>
</svg>
